<svg width="605" height="79" viewBox="0 0 605 79" fill="none" xmlns="http://www.w3.org/2000/svg">
<path d="M573.196 78.4977C569.703 78.4977 566.59 77.8917 563.857 76.6798C561.124 75.4441 558.962 73.6262 557.37 71.2261C555.801 68.8022 555.017 65.7842 555.017 62.1722C555.017 59.1305 555.576 56.5759 556.692 54.5085C557.809 52.441 559.33 50.7776 561.255 49.5181C563.18 48.2587 565.366 47.3081 567.814 46.6665C570.285 46.0249 572.875 45.5734 575.584 45.312C578.769 44.9793 581.335 44.6704 583.284 44.3852C585.232 44.0763 586.646 43.6248 587.526 43.0307C588.405 42.4366 588.844 41.5574 588.844 40.3929V40.1791C588.844 37.9215 588.132 36.1749 586.706 34.9392C585.304 33.7035 583.308 33.0857 580.717 33.0857C577.985 33.0857 575.81 33.6916 574.194 34.9036C572.578 36.0918 571.509 37.5889 570.986 39.3949L556.942 38.2542C557.655 34.9273 559.057 32.052 561.148 29.6281C563.239 27.1804 565.936 25.3031 569.24 23.9961C572.566 22.6654 576.416 22 580.789 22C583.83 22 586.741 22.3565 589.522 23.0694C592.326 23.7823 594.809 24.8873 596.972 26.3844C599.158 27.8815 600.881 29.8063 602.14 32.1589C603.4 34.4877 604.029 37.2799 604.029 40.5355V77.464H589.629V69.8716H589.201C588.322 71.5825 587.145 73.0915 585.672 74.3985C584.199 75.6817 582.428 76.6917 580.361 77.4284C578.293 78.1413 575.905 78.4977 573.196 78.4977ZM577.545 68.018C579.779 68.018 581.751 67.5784 583.462 66.6991C585.173 65.7961 586.516 64.5842 587.49 63.0633C588.464 61.5425 588.951 59.8196 588.951 57.8948V52.0846C588.476 52.3935 587.823 52.6787 586.991 52.9401C586.183 53.1777 585.268 53.4035 584.246 53.6173C583.224 53.8074 582.203 53.9857 581.181 54.152C580.159 54.2946 579.232 54.4253 578.4 54.5441C576.618 54.8055 575.062 55.2214 573.731 55.7917C572.4 56.362 571.366 57.1343 570.63 58.1086C569.893 59.0592 569.525 60.2473 569.525 61.6732C569.525 63.7406 570.273 65.3209 571.77 66.414C573.291 67.4833 575.216 68.018 577.545 68.018Z" fill="black"/>
<path d="M535.19 77.172V22.4209H550.375V77.172H535.19ZM542.819 15.3631C540.561 15.3631 538.624 14.6146 537.008 13.1174C535.416 11.5966 534.62 9.77868 534.62 7.66373C534.62 5.57254 535.416 3.7784 537.008 2.2813C538.624 0.760434 540.561 0 542.819 0C545.076 0 547.001 0.760434 548.593 2.2813C550.209 3.7784 551.017 5.57254 551.017 7.66373C551.017 9.77868 550.209 11.5966 548.593 13.1174C547.001 14.6146 545.076 15.3631 542.819 15.3631Z" fill="black"/>
<path d="M477.224 77.0015V4H492.409V31.4468H492.872C493.537 29.9735 494.5 28.4764 495.759 26.9555C497.042 25.4109 498.706 24.1277 500.75 23.1059C502.817 22.0603 505.383 21.5375 508.449 21.5375C512.441 21.5375 516.124 22.5831 519.499 24.6742C522.873 26.7417 525.57 29.8666 527.59 34.0489C529.61 38.2076 530.62 43.4236 530.62 49.6972C530.62 55.8044 529.634 60.9611 527.662 65.1673C525.713 69.3496 523.052 72.5221 519.677 74.6845C516.326 76.8232 512.572 77.8926 508.413 77.8926C505.467 77.8926 502.96 77.4054 500.892 76.4311C498.848 75.4568 497.173 74.233 495.866 72.7597C494.559 71.2626 493.561 69.7536 492.872 68.2327H492.195V77.0015H477.224ZM492.088 49.6259C492.088 52.8815 492.539 55.7213 493.442 58.1451C494.345 60.569 495.652 62.4582 497.363 63.8127C499.074 65.1435 501.153 65.8089 503.601 65.8089C506.073 65.8089 508.164 65.1316 509.875 63.7771C511.586 62.3988 512.881 60.4977 513.76 58.0738C514.663 55.6262 515.115 52.8102 515.115 49.6259C515.115 46.4654 514.675 43.685 513.796 41.2849C512.916 38.8848 511.621 37.0075 509.91 35.653C508.199 34.2985 506.096 33.6212 503.601 33.6212C501.13 33.6212 499.039 34.2747 497.328 35.5817C495.64 36.8887 494.345 38.7422 493.442 41.1424C492.539 43.5425 492.088 46.3703 492.088 49.6259Z" fill="black"/>
<path d="M440.002 76.5353V21.7842H454.724V31.3371H455.294C456.292 27.9389 457.968 25.3725 460.32 23.6377C462.673 21.8792 465.382 21 468.447 21C469.208 21 470.028 21.0475 470.907 21.1426C471.786 21.2376 472.558 21.3683 473.224 21.5347V35.0086C472.511 34.7947 471.525 34.6046 470.265 34.4383C469.006 34.2719 467.853 34.1887 466.808 34.1887C464.574 34.1887 462.578 34.6759 460.819 35.6502C459.085 36.6007 457.706 37.9315 456.684 39.6425C455.686 41.3534 455.187 43.3258 455.187 45.5596V76.5353H440.002Z" fill="black"/>
<path d="M410.873 78.5334C405.241 78.5334 400.393 77.3927 396.329 75.1114C392.29 72.8064 389.177 69.5508 386.99 65.3446C384.804 61.1147 383.711 56.1125 383.711 50.338C383.711 44.706 384.804 39.7632 386.99 35.5095C389.177 31.2559 392.254 27.9409 396.222 25.5645C400.215 23.1882 404.896 22 410.267 22C413.879 22 417.241 22.5822 420.354 23.7466C423.491 24.8873 426.224 26.6101 428.553 28.9152C430.905 31.2202 432.735 34.1194 434.042 37.6126C435.349 41.0821 436.002 45.1456 436.002 49.8033V53.9738H389.771V44.5634H421.709C421.709 42.3772 421.234 40.4405 420.283 38.7533C419.332 37.0661 418.014 35.7472 416.326 34.7966C414.663 33.8223 412.726 33.3352 410.516 33.3352C408.211 33.3352 406.167 33.8699 404.385 34.9392C402.627 35.9848 401.248 37.3987 400.25 39.181C399.252 40.9395 398.741 42.9 398.718 45.0625V54.0094C398.718 56.7185 399.217 59.0592 400.215 61.0315C401.236 63.0039 402.674 64.5248 404.528 65.5941C406.381 66.6635 408.579 67.1982 411.122 67.1982C412.809 67.1982 414.354 66.9605 415.756 66.4853C417.158 66.01 418.358 65.2971 419.356 64.3465C420.354 63.396 421.115 62.2316 421.637 60.8533L435.682 61.7801C434.969 65.1545 433.507 68.1012 431.297 70.6201C429.111 73.1153 426.283 75.0639 422.814 76.4659C419.368 77.8442 415.388 78.5334 410.873 78.5334Z" fill="black"/>
<path d="M363.92 24.9931C363.635 22.1177 362.411 19.884 360.249 18.2918C358.086 16.6997 355.152 15.9036 351.444 15.9036C348.926 15.9036 346.799 16.26 345.064 16.9729C343.329 17.6621 341.998 18.6245 341.072 19.8602C340.169 21.0959 339.717 22.498 339.717 24.0663C339.67 25.3733 339.943 26.514 340.537 27.4883C341.155 28.4626 341.998 29.3062 343.068 30.0191C344.137 30.7082 345.373 31.3142 346.775 31.837C348.177 32.336 349.674 32.7638 351.266 33.1202L357.825 34.6886C361.009 35.4015 363.932 36.3521 366.594 37.5402C369.255 38.7284 371.56 40.1899 373.509 41.9246C375.457 43.6593 376.966 45.703 378.036 48.0556C379.129 50.4082 379.687 53.1053 379.711 56.1471C379.687 60.6146 378.547 64.4881 376.289 67.7674C374.055 71.023 370.824 73.5538 366.594 75.3599C362.388 77.1421 357.314 78.0332 351.373 78.0332C345.48 78.0332 340.347 77.1302 335.974 75.3242C331.626 73.5182 328.227 70.8448 325.78 67.304C323.356 63.7395 322.085 59.3314 321.966 54.0796H336.901C337.068 56.5273 337.769 58.5709 339.004 60.2106C340.264 61.8265 341.939 63.0504 344.03 63.8821C346.145 64.69 348.533 65.094 351.195 65.094C353.809 65.094 356.078 64.7138 358.003 63.9534C359.952 63.1929 361.461 62.1355 362.53 60.7809C363.599 59.4264 364.134 57.8699 364.134 56.1114C364.134 54.4717 363.647 53.0935 362.673 51.9766C361.722 50.8597 360.32 49.9091 358.467 49.1249C356.637 48.3408 354.391 47.6279 351.73 46.9862L343.781 44.9901C337.626 43.493 332.766 41.1523 329.202 37.968C325.637 34.7837 323.867 30.4944 323.891 25.1C323.867 20.68 325.043 16.8185 327.42 13.5154C329.82 10.2122 333.111 7.63388 337.293 5.78033C341.476 3.92678 346.228 3 351.551 3C356.969 3 361.698 3.92678 365.738 5.78033C369.802 7.63388 372.962 10.2122 375.22 13.5154C377.477 16.8185 378.642 20.6444 378.713 24.9931H363.92Z" fill="black"/>
<path d="M282.677 45.811V77.464H267.492V22.7129H281.964V32.3728H282.606C283.818 29.1885 285.849 26.6695 288.701 24.816C291.553 22.9387 295.01 22 299.074 22C302.876 22 306.191 22.8317 309.019 24.4952C311.847 26.1586 314.045 28.535 315.613 31.6242C317.182 34.6897 317.966 38.3493 317.966 42.6029V77.464H302.781V45.312C302.805 41.9613 301.949 39.3474 300.215 37.47C298.48 35.569 296.092 34.6184 293.05 34.6184C291.006 34.6184 289.2 35.058 287.632 35.9373C286.087 36.8165 284.875 38.0998 283.996 39.787C283.14 41.4504 282.701 43.4584 282.677 45.811Z" fill="black"/>
<path d="M263.492 4V77.0015H248.058V4H263.492Z" fill="black"/>
<path d="M212.904 77.8926C208.745 77.8926 204.979 76.8232 201.604 74.6845C198.254 72.5221 195.592 69.3496 193.62 65.1673C191.671 60.9611 190.697 55.8044 190.697 49.6972C190.697 43.4236 191.707 38.2076 193.727 34.0489C195.747 29.8666 198.432 26.7417 201.782 24.6742C205.157 22.5831 208.852 21.5375 212.868 21.5375C215.934 21.5375 218.488 22.0603 220.532 23.1059C222.599 24.1277 224.263 25.4109 225.522 26.9555C226.805 28.4764 227.78 29.9735 228.445 31.4468H228.908V4H244.058V77.0015H229.087V68.2327H228.445C227.732 69.7536 226.722 71.2626 225.415 72.7597C224.132 74.233 222.457 75.4568 220.389 76.4311C218.346 77.4054 215.85 77.8926 212.904 77.8926ZM217.716 65.8089C220.164 65.8089 222.231 65.1435 223.918 63.8127C225.629 62.4582 226.936 60.569 227.839 58.1451C228.766 55.7213 229.229 52.8815 229.229 49.6259C229.229 46.3703 228.778 43.5425 227.875 41.1424C226.972 38.7422 225.665 36.8887 223.954 35.5817C222.243 34.2747 220.164 33.6212 217.716 33.6212C215.221 33.6212 213.118 34.2985 211.407 35.653C209.696 37.0075 208.401 38.8848 207.521 41.2849C206.642 43.685 206.202 46.4654 206.202 49.6259C206.202 52.8102 206.642 55.6262 207.521 58.0738C208.424 60.4977 209.719 62.3988 211.407 63.7771C213.118 65.1316 215.221 65.8089 217.716 65.8089Z" fill="black"/>
<path d="M186.697 4V77.0015H171.512V4H186.697Z" fill="black"/>
<path d="M151.685 77.172V22.4209H166.87V77.172H151.685ZM159.313 15.3631C157.056 15.3631 155.119 14.6146 153.503 13.1174C151.911 11.5966 151.115 9.77868 151.115 7.66373C151.115 5.57254 151.911 3.7784 153.503 2.2813C155.119 0.760434 157.056 0 159.313 0C161.571 0 163.496 0.760434 165.088 2.2813C166.704 3.7784 167.512 5.57254 167.512 7.66373C167.512 9.77868 166.704 11.5966 165.088 13.1174C163.496 14.6146 161.571 15.3631 159.313 15.3631Z" fill="black"/>
<path d="M131.93 53.4391V22H147.115V76.7511H132.536V66.8061H131.966C130.73 70.0141 128.674 72.5925 125.799 74.5411C122.947 76.4897 119.466 77.464 115.355 77.464C111.695 77.464 108.475 76.6323 105.695 74.9688C102.915 73.3054 100.74 70.9409 99.1719 67.8754C97.6273 64.8099 96.8431 61.1385 96.8193 56.861V22H112.004V54.152C112.028 57.3838 112.895 59.9384 114.606 61.8157C116.317 63.6931 118.61 64.6317 121.486 64.6317C123.316 64.6317 125.027 64.2159 126.619 63.3841C128.211 62.5286 129.494 61.2692 130.468 59.6057C131.467 57.9423 131.954 55.8867 131.93 53.4391Z" fill="black"/>
<path d="M36.5 77.0015V4H65.7291C71.0997 4 75.5791 4.79608 79.1674 6.38823C82.7556 7.98039 85.4528 10.1904 87.2588 13.0182C89.0649 15.8223 89.9679 19.0542 89.9679 22.7138C89.9679 25.5654 89.3975 28.0724 88.2569 30.2349C87.1163 32.3736 85.5479 34.1321 83.5517 35.5104C81.5794 36.8649 79.3218 37.8273 76.7791 38.3977V39.1106C79.5595 39.2294 82.1616 40.0136 84.5854 41.4632C87.0331 42.9127 89.0173 44.9445 90.5382 47.5585C92.0591 50.1487 92.8195 53.238 92.8195 56.8263C92.8195 60.6997 91.8571 64.1573 89.9322 67.199C88.0311 70.217 85.2152 72.6052 81.4843 74.3637C77.7534 76.1222 73.1552 77.0015 67.6896 77.0015H36.5ZM51.9344 64.383H64.5172C68.8184 64.383 71.9551 63.5632 73.9275 61.9235C75.8999 60.2601 76.8861 58.0501 76.8861 55.2935C76.8861 53.2736 76.3989 51.4914 75.4246 49.9467C74.4503 48.4021 73.0601 47.1902 71.2541 46.3109C69.4719 45.4317 67.345 44.992 64.8736 44.992H51.9344V64.383ZM51.9344 34.548H63.3765C65.4915 34.548 67.3688 34.1796 69.0085 33.443C70.6719 32.6825 71.9789 31.6132 72.9294 30.2349C73.9037 28.8566 74.3909 27.2051 74.3909 25.2802C74.3909 22.6425 73.4522 20.5156 71.5749 18.8997C69.7214 17.2838 67.0836 16.4758 63.6617 16.4758H51.9344V34.548Z" fill="black"/>
<path d="M37 73C18.7746 73 4 58.4493 4 40.5C4 22.5507 18.7746 8 37 8C37 40.5 37 40.5 37 73Z" fill="url(#paint0_linear_105_22)"/>
<path d="M37 72C19.3269 72 5 57.897 5 40.5C5 23.103 19.3269 9 37 9" stroke="black" stroke-width="10"/>
<defs>
<linearGradient id="paint0_linear_105_22" x1="20.5" y1="8" x2="20.5" y2="73" gradientUnits="userSpaceOnUse">
<stop stop-color="#C6363C"/>
<stop offset="0.3332" stop-color="#C6363C"/>
<stop offset="0.3333" stop-color="#0054A6"/>
<stop offset="0.663462" stop-color="#0054A6"/>
<stop offset="0.67" stop-color="white"/>
<stop offset="1" stop-color="white"/>
</linearGradient>
</defs>
</svg>
