<svg width="512" height="512" viewBox="0 0 512 512" fill="none" xmlns="http://www.w3.org/2000/svg">
<path d="M202.515 457.532V59.9069H361.72C390.972 59.9069 415.371 64.243 434.916 72.9152C454.46 81.5873 469.151 93.6248 478.988 109.028C488.825 124.301 493.744 141.904 493.744 161.837C493.744 177.369 490.637 191.025 484.425 202.803C478.212 214.453 469.669 224.031 458.796 231.538C448.053 238.916 435.757 244.158 421.907 247.264V251.147C437.051 251.795 451.224 256.066 464.427 263.962C477.759 271.857 488.567 282.924 496.85 297.162C505.134 311.27 509.276 328.097 509.276 347.641C509.276 368.739 504.034 387.572 493.55 404.14C483.195 420.578 467.857 433.586 447.536 443.165C427.214 452.743 402.168 457.532 372.398 457.532H202.515ZM286.583 388.802H355.119C378.547 388.802 395.632 384.336 406.375 375.405C417.118 366.345 422.49 354.307 422.49 339.293C422.49 328.291 419.836 318.583 414.53 310.17C409.223 301.757 401.651 295.155 391.814 290.366C382.106 285.577 370.522 283.183 357.06 283.183H286.583V388.802ZM286.583 226.296H348.906C360.426 226.296 370.651 224.29 379.582 220.277C388.643 216.135 395.761 210.311 400.939 202.803C406.246 195.296 408.899 186.3 408.899 175.816C408.899 161.449 403.786 149.864 393.561 141.063C383.465 132.261 369.098 127.86 350.459 127.86H286.583V226.296Z" fill="black"/>
<path d="M205.238 435.737C105.968 435.737 25.4934 356.482 25.4934 258.715C25.4934 160.949 105.968 81.6942 205.238 81.6942C205.238 258.715 205.238 258.715 205.238 435.737Z" fill="url(#paint0_linear_109_5)"/>
<path d="M205.238 430.29C108.976 430.29 30.9402 353.473 30.9402 258.715C30.9402 163.957 108.976 87.141 205.238 87.141" stroke="black" stroke-width="54.4681"/>
<defs>
<linearGradient id="paint0_linear_109_5" x1="115.366" y1="81.6942" x2="115.366" y2="435.737" gradientUnits="userSpaceOnUse">
<stop stop-color="#C6363C"/>
<stop offset="0.3332" stop-color="#C6363C"/>
<stop offset="0.3333" stop-color="#0054A6"/>
<stop offset="0.663462" stop-color="#0054A6"/>
<stop offset="0.67" stop-color="white"/>
<stop offset="1" stop-color="white"/>
</linearGradient>
</defs>
</svg>
